<svg width="1920" height="1080" viewBox="0 0 1920 1080" fill="none" xmlns="http://www.w3.org/2000/svg">
  <defs>
    <linearGradient id="aboutGrad" x1="0%" y1="0%" x2="100%" y2="100%">
      <stop offset="0%" style="stop-color:#f8fafc;stop-opacity:1" />
      <stop offset="100%" style="stop-color:#e2e8f0;stop-opacity:1" />
    </linearGradient>
  </defs>
  
  <rect width="1920" height="1080" fill="url(#aboutGrad)"/>
  
  <!-- Hexagonal pattern -->
  <g opacity="0.08" fill="none" stroke="rgb(30, 41, 59)" stroke-width="1.5">
    <circle cx="200" cy="150" r="60"/>
    <circle cx="400" cy="150" r="60"/>
    <circle cx="600" cy="150" r="60"/>
    <circle cx="800" cy="150" r="60"/>
    <circle cx="1000" cy="150" r="60"/>
    <circle cx="1200" cy="150" r="60"/>
    <circle cx="1400" cy="150" r="60"/>
    <circle cx="1600" cy="150" r="60"/>
    <circle cx="1800" cy="150" r="60"/>
    
    <circle cx="300" cy="350" r="60"/>
    <circle cx="700" cy="350" r="60"/>
    <circle cx="1100" cy="350" r="60"/>
    <circle cx="1500" cy="350" r="60"/>
    <circle cx="1900" cy="350" r="60"/>
    
    <circle cx="200" cy="550" r="60"/>
    <circle cx="600" cy="550" r="60"/>
    <circle cx="1000" cy="550" r="60"/>
    <circle cx="1400" cy="550" r="60"/>
    <circle cx="1800" cy="550" r="60"/>
    
    <circle cx="300" cy="750" r="60"/>
    <circle cx="700" cy="750" r="60"/>
    <circle cx="1100" cy="750" r="60"/>
    <circle cx="1500" cy="750" r="60"/>
    <circle cx="1900" cy="750" r="60"/>
    
    <circle cx="200" cy="950" r="60"/>
    <circle cx="600" cy="950" r="60"/>
    <circle cx="1000" cy="950" r="60"/>
    <circle cx="1400" cy="950" r="60"/>
    <circle cx="1800" cy="950" r="60"/>
  </g>
  
  <!-- Connection lines -->
  <g opacity="0.05" stroke="rgb(30, 41, 59)" stroke-width="1">
    <line x1="200" y1="150" x2="400" y2="150"/>
    <line x1="300" y1="350" x2="200" y2="150"/>
    <line x1="300" y1="350" x2="700" y2="350"/>
  </g>
  
  <!-- Data flow indicators -->
  <g opacity="0.12" fill="rgb(59, 130, 246)">
    <rect x="150" y="200" width="3" height="20" rx="1.5"/>
    <rect x="450" y="280" width="3" height="20" rx="1.5"/>
    <rect x="950" y="350" width="3" height="20" rx="1.5"/>
    <rect x="1550" y="400" width="3" height="20" rx="1.5"/>
  </g>
</svg>