<svg width="1920" height="1080" viewBox="0 0 1920 1080" fill="none" xmlns="http://www.w3.org/2000/svg">
  <defs>
    <linearGradient id="educationGrad" x1="0%" y1="0%" x2="100%" y2="100%">
      <stop offset="0%" style="stop-color:#f1f5f9;stop-opacity:1" />
      <stop offset="100%" style="stop-color:#cbd5e1;stop-opacity:1" />
    </linearGradient>
  </defs>
  
  <rect width="1920" height="1080" fill="url(#educationGrad)"/>
  
  <!-- Certification badges -->
  <g opacity="0.12" fill="none" stroke="rgb(59, 130, 246)" stroke-width="2">
    <!-- Badges layout -->
    <circle cx="300" cy="250" r="70"/>
    <path d="M 300 190 L 320 230 L 280 230 Z" fill="rgb(59, 130, 246)" opacity="0.15"/>
    
    <circle cx="900" cy="250" r="70"/>
    <path d="M 900 190 L 920 230 L 880 230 Z" fill="rgb(59, 130, 246)" opacity="0.15"/>
    
    <circle cx="1500" cy="250" r="70"/>
    <path d="M 1500 190 L 1520 230 L 1480 230 Z" fill="rgb(59, 130, 246)" opacity="0.15"/>
    
    <circle cx="600" cy="650" r="70"/>
    <path d="M 600 590 L 620 630 L 580 630 Z" fill="rgb(59, 130, 246)" opacity="0.15"/>
    
    <circle cx="1200" cy="650" r="70"/>
    <path d="M 1200 590 L 1220 630 L 1180 630 Z" fill="rgb(59, 130, 246)" opacity="0.15"/>
    
    <circle cx="1800" cy="650" r="70"/>
    <path d="M 1800 590 L 1820 630 L 1780 630 Z" fill="rgb(59, 130, 246)" opacity="0.15"/>
  </g>
  
  <!-- Ribbon elements -->
  <g opacity="0.1" fill="none" stroke="rgb(79, 172, 254)" stroke-width="2">
    <path d="M 300 320 Q 280 380 300 440"/>
    <path d="M 900 320 Q 880 380 900 440"/>
    <path d="M 1500 320 Q 1480 380 1500 440"/>
    
    <path d="M 600 720 Q 580 780 600 840"/>
    <path d="M 1200 720 Q 1180 780 1200 840"/>
    <path d="M 1800 720 Q 1780 780 1800 840"/>
  </g>
  
  <!-- Achievement lines -->
  <g opacity="0.08" stroke="rgb(30, 41, 59)" stroke-width="1" fill="none" stroke-dasharray="3,3">
    <line x1="370" y1="250" x2="830" y2="250"/>
    <line x1="970" y1="250" x2="1430" y2="250"/>
    
    <line x1="670" y1="650" x2="1130" y2="650"/>
    <line x1="1270" y1="650" x2="1730" y2="650"/>
  </g>
  
  <!-- Star elements -->
  <g opacity="0.12" fill="rgb(59, 130, 246)">
    <circle cx="280" cy="200" r="3"/>
    <circle cx="320" cy="200" r="3"/>
    <circle cx="880" cy="200" r="3"/>
    <circle cx="920" cy="200" r="3"/>
    <circle cx="1480" cy="200" r="3"/>
    <circle cx="1520" cy="200" r="3"/>
  </g>
</svg>