<svg width="1920" height="1080" viewBox="0 0 1920 1080" fill="none" xmlns="http://www.w3.org/2000/svg">
  <defs>
    <pattern id="grid" width="40" height="40" patternUnits="userSpaceOnUse">
      <path d="M 40 0 L 0 0 0 40" fill="none" stroke="rgba(59, 130, 246, 0.1)" stroke-width="0.5"/>
    </pattern>
    <linearGradient id="heroGrad" x1="0%" y1="0%" x2="100%" y2="100%">
      <stop offset="0%" style="stop-color:#0f172a;stop-opacity:1" />
      <stop offset="100%" style="stop-color:#1e293b;stop-opacity:1" />
    </linearGradient>
  </defs>
  
  <rect width="1920" height="1080" fill="url(#heroGrad)"/>
  <rect width="1920" height="1080" fill="url(#grid)"/>
  
  <!-- Animated circuit lines -->
  <g opacity="0.15" stroke="rgb(59, 130, 246)" stroke-width="2">
    <path d="M 100 100 L 300 100 L 300 300 L 500 300" fill="none"/>
    <path d="M 1500 200 L 1700 200 L 1700 400 L 1900 400" fill="none"/>
    <path d="M 200 800 L 400 800 L 400 600 L 600 600" fill="none"/>
  </g>
  
  <!-- Lock symbols -->
  <g opacity="0.08" fill="none" stroke="rgb(59, 130, 246)" stroke-width="2">
    <circle cx="300" cy="300" r="30"/>
    <path d="M 270 330 L 270 350 Q 270 360 280 360 L 320 360 Q 330 360 330 350 L 330 330"/>
    
    <circle cx="1600" cy="800" r="25"/>
    <path d="M 1575 825 L 1575 840 Q 1575 848 1583 848 L 1617 848 Q 1625 848 1625 840 L 1625 825"/>
  </g>
  
  <!-- Shield icons -->
  <g opacity="0.12" fill="none" stroke="rgb(79, 172, 254)" stroke-width="2">
    <path d="M 1700 100 L 1750 150 L 1750 250 Q 1750 280 1725 300 Q 1700 280 1700 250 L 1700 150"/>
    <path d="M 150 900 L 200 950 L 200 1050 Q 200 1080 175 1100 Q 150 1080 150 1050 L 150 950"/>
  </g>
  
  <!-- Nodes and connections -->
  <g opacity="0.15">
    <circle cx="400" cy="200" r="4" fill="rgb(59, 130, 246)"/>
    <circle cx="600" cy="350" r="4" fill="rgb(59, 130, 246)"/>
    <circle cx="1300" cy="400" r="4" fill="rgb(59, 130, 246)"/>
    <circle cx="1500" cy="600" r="4" fill="rgb(59, 130, 246)"/>
    <line x1="400" y1="200" x2="600" y2="350" stroke="rgb(59, 130, 246)" stroke-width="1" opacity="0.3"/>
    <line x1="600" y1="350" x2="1300" y2="400" stroke="rgb(59, 130, 246)" stroke-width="1" opacity="0.3"/>
    <line x1="1300" y1="400" x2="1500" y2="600" stroke="rgb(59, 130, 246)" stroke-width="1" opacity="0.3"/>
  </g>
</svg>