<svg width="1920" height="1080" viewBox="0 0 1920 1080" fill="none" xmlns="http://www.w3.org/2000/svg">
  <defs>
    <linearGradient id="skillsGrad" x1="0%" y1="0%" x2="100%" y2="100%">
      <stop offset="0%" style="stop-color:#f8fafc;stop-opacity:1" />
      <stop offset="100%" style="stop-color:#e2e8f0;stop-opacity:1" />
    </linearGradient>
  </defs>
  
  <rect width="1920" height="1080" fill="url(#skillsGrad)"/>
  
  <!-- Technology nodes -->
  <g opacity="0.12" fill="none" stroke="rgb(59, 130, 246)" stroke-width="2">
    <!-- Central node -->
    <circle cx="960" cy="540" r="80"/>
    
    <!-- Surrounding nodes -->
    <circle cx="300" cy="300" r="60"/>
    <circle cx="1620" cy="300" r="60"/>
    <circle cx="200" cy="700" r="60"/>
    <circle cx="1720" cy="700" r="60"/>
    <circle cx="500" cy="900" r="60"/>
    <circle cx="1420" cy="900" r="60"/>
  </g>
  
  <!-- Connection lines to central node -->
  <g opacity="0.08" stroke="rgb(59, 130, 246)" stroke-width="1.5" fill="none">
    <line x1="960" y1="540" x2="300" y2="300"/>
    <line x1="960" y1="540" x2="1620" y2="300"/>
    <line x1="960" y1="540" x2="200" y2="700"/>
    <line x1="960" y1="540" x2="1720" y2="700"/>
    <line x1="960" y1="540" x2="500" y2="900"/>
    <line x1="960" y1="540" x2="1420" y2="900"/>
  </g>
  
  <!-- Skill bars -->
  <g opacity="0.1" fill="rgb(59, 130, 246)">
    <rect x="100" y="150" width="300" height="8" rx="4"/>
    <rect x="100" y="180" width="280" height="8" rx="4"/>
    <rect x="100" y="210" width="320" height="8" rx="4"/>
    
    <rect x="1520" y="150" width="300" height="8" rx="4"/>
    <rect x="1520" y="180" width="290" height="8" rx="4"/>
    <rect x="1520" y="210" width="310" height="8" rx="4"/>
  </g>
  
  <!-- Hexagons for tools -->
  <g opacity="0.08" fill="none" stroke="rgb(79, 172, 254)" stroke-width="2">
    <path d="M 100 400 L 140 375 L 180 400 L 180 450 L 140 475 L 100 450 Z"/>
    <path d="M 1740 400 L 1780 375 L 1820 400 L 1820 450 L 1780 475 L 1740 450 Z"/>
    <path d="M 420 850 L 460 825 L 500 850 L 500 900 L 460 925 L 420 900 Z"/>
    <path d="M 1420 850 L 1460 825 L 1500 850 L 1500 900 L 1460 925 L 1420 900 Z"/>
  </g>
</svg>